<svg id="Layer_1" data-name="Layer 1" xmlns="http://www.w3.org/2000/svg" viewBox="0 0 512 470.33"><title>fox icon new</title><path d="M489.37,21.73c-12.17,4-112.26,37.77-153,68.56a226.13,226.13,0,0,0-160.72,0C134.89,59.5,34.8,25.77,22.63,21.73A17.22,17.22,0,0,0,.19,40.56C6.7,84.86,23,176.73,47.85,213.66A225.68,225.68,0,0,0,30.1,301.46a17.21,17.21,0,0,0,6.24,13.26L245,487.22a17.21,17.21,0,0,0,21.92,0l208.7-172.49a17.21,17.21,0,0,0,6.24-13.26,225.66,225.66,0,0,0-17.75-87.81c24.92-37,41.23-129.29,47.66-173.09A17.22,17.22,0,0,0,489.37,21.73ZM112.89,120.87" transform="translate(0 -20.84)"/><path d="M304,284" transform="translate(0 -20.84)"/><line x1="447.32" y1="272.66" x2="302" y2="268.17"/></svg>